<?xml version="1.0" encoding="UTF-8"?>
<svg width="167px" height="29px" viewBox="0 0 167 29" version="1.1" xmlns="http://www.w3.org/2000/svg" xmlns:xlink="http://www.w3.org/1999/xlink">
    <!-- Generator: sketchtool 51 (57462) - http://www.bohemiancoding.com/sketch -->
    <title>0F6F2CDA-701F-43B4-AB80-FD4FBF6F5D76</title>
    <desc>Created with sketchtool.</desc>
    <defs></defs>
    <g id="Page-1" stroke="none" stroke-width="1" fill="none" fill-rule="evenodd">
        <g id="PrimeIcons-Web" transform="translate(-268.000000, -13.000000)">
            <rect fill="#FDFDFD" x="0" y="0" width="1440" height="1527"></rect>
            <g id="topbar">
                <g id="logo-primeicons" transform="translate(268.000000, 11.000000)">
                    <rect id="bg-version" fill="#444444" fill-rule="nonzero" x="143" y="2" width="24" height="11"></rect>
                    <text id="1.0.0" font-family="Poppins-SemiBold, Poppins" font-size="10" font-weight="500" fill="#FFFFFF">
                        <tspan x="144.92" y="11">1.0.0</tspan>
                    </text>
                    <g id="logo" transform="translate(0.000000, 7.000000)">
                        <path d="M73.16,0 L76.28,0 C76.58,0 76.76,0.18 76.76,0.48 L76.76,23.52 C76.76,23.82 76.58,24 76.28,24 L73.16,24 C72.83,24 72.68,23.82 72.68,23.52 L72.68,0.48 C72.68,0.18 72.83,0 73.16,0 Z M91.79,4.32 L91.79,7.56 C91.79,7.86 91.61,8.04 91.31,8.04 L88.31,8.04 C87.98,8.04 87.83,7.86 87.83,7.56 L87.83,5.16 C87.83,4.38 87.41,3.96 86.63,3.96 L85.07,3.96 C84.26,3.96 83.87,4.38 83.87,5.16 L83.87,18.84 C83.87,19.65 84.29,20.04 85.07,20.04 L86.63,20.04 C87.41,20.04 87.83,19.65 87.83,18.84 L87.83,16.44 C87.83,16.14 87.98,15.96 88.31,15.96 L91.31,15.96 C91.61,15.96 91.79,16.14 91.79,16.44 L91.79,19.68 C91.79,22.5 90.26,24 87.47,24 L84.11,24 C81.29,24 79.76,22.5 79.76,19.68 L79.76,4.32 C79.76,1.5 81.29,0 84.11,0 L87.47,0 C90.26,0 91.79,1.5 91.79,4.32 Z M94.79,19.68 L94.79,4.32 C94.79,1.5 96.29,0 99.11,0 L102.47,0 C105.29,0 106.79,1.5 106.79,4.32 L106.79,19.68 C106.79,22.5 105.29,24 102.47,24 L99.11,24 C96.29,24 94.79,22.5 94.79,19.68 Z M99.98,20.13 L101.72,20.13 C102.5,20.13 102.92,19.74 102.92,18.93 L102.92,5.07 C102.92,4.29 102.5,3.87 101.72,3.87 L99.98,3.87 C99.2,3.87 98.78,4.29 98.78,5.07 L98.78,18.93 C98.78,19.74 99.2,20.13 99.98,20.13 Z M119,0 L122.12,0 C122.42,0 122.6,0.18 122.6,0.48 L122.6,23.52 C122.6,23.82 122.42,24 122.12,24 L119.15,24 C118.88,24 118.7,23.88 118.61,23.61 L114.02,10.8 L113.87,10.8 L113.87,23.52 C113.87,23.82 113.72,24 113.39,24 L110.27,24 C109.97,24 109.79,23.82 109.79,23.52 L109.79,0.48 C109.79,0.18 109.97,0 110.27,0 L113.24,0 C113.51,0 113.69,0.12 113.78,0.39 L118.34,13.14 L118.52,13.14 L118.52,0.48 C118.52,0.18 118.67,0 119,0 Z M129.92,0 L133.28,0 C136.1,0 137.6,1.5 137.6,4.32 L137.6,7.5 C137.6,7.8 137.45,7.98 137.12,7.98 L134,7.98 C133.7,7.98 133.52,7.8 133.52,7.5 L133.52,5.16 C133.52,4.38 133.13,3.96 132.32,3.96 L130.88,3.96 C130.13,3.96 129.68,4.38 129.68,5.16 L129.68,9.3 L136.82,11.64 C137.33,11.85 137.6,12.18 137.6,12.75 L137.6,19.68 C137.6,22.5 136.1,24 133.28,24 L129.92,24 C127.13,24 125.6,22.5 125.6,19.68 L125.6,16.53 C125.6,16.2 125.78,16.05 126.08,16.05 L129.2,16.05 C129.53,16.05 129.68,16.2 129.68,16.53 L129.68,18.84 C129.68,19.65 130.13,20.04 130.88,20.04 L132.32,20.04 C133.1,20.04 133.52,19.65 133.52,18.84 L133.52,14.85 L126.41,12.51 C125.87,12.33 125.6,11.97 125.6,11.4 L125.6,4.32 C125.6,1.5 127.13,0 129.92,0 Z" id="PRIMEICONS" fill="#2974D4"></path>
                        <path d="M0.5,23.52 L0.5,0.48 C0.5,0.18 0.68,0 0.98,0 L8.18,0 C11,0 12.5,1.5 12.5,4.32 L12.5,11.64 C12.5,14.43 11,15.96 8.18,15.96 L4.58,15.96 L4.58,23.52 C4.58,23.82 4.43,24 4.1,24 L0.98,24 C0.68,24 0.5,23.82 0.5,23.52 Z" id="Path" fill="#444444"></path>
                        <path d="M27.53,4.32 L27.53,11.64 C27.53,13.65 26.78,14.97 25.34,15.6 L27.41,23.46 C27.5,23.82 27.32,24 26.99,24 L23.87,24 C23.57,24 23.42,23.85 23.36,23.58 L21.35,15.96 L19.28,15.96 L19.28,23.52 C19.28,23.82 19.1,24 18.8,24 L15.68,24 C15.38,24 15.2,23.82 15.2,23.52 L15.2,0.48 C15.2,0.18 15.38,0 15.68,0 L23.21,0 C26.03,0 27.53,1.5 27.53,4.32 Z" id="Path" fill="#444444"></path>
                        <path d="M31.01,0 L34.13,0 C34.43,0 34.61,0.18 34.61,0.48 L34.61,23.52 C34.61,23.82 34.43,24 34.13,24 L31.01,24 C30.68,24 30.53,23.82 30.53,23.52 L30.53,0.48 C30.53,0.18 30.68,0 31.01,0 Z" id="Path" fill="#444444"></path>
                        <path d="M50.15,0 L54.11,0 C54.5,0 54.71,0.21 54.71,0.6 L54.71,23.4 C54.71,23.79 54.5,24 54.11,24 L51.32,24 C50.93,24 50.72,23.79 50.72,23.4 L50.72,9.9 L50.51,9.9 L47.54,23.46 C47.45,23.82 47.24,24 46.88,24 L45.41,24 C45.05,24 44.84,23.82 44.75,23.46 L41.78,9.9 L41.57,9.9 L41.57,23.4 C41.57,23.79 41.36,24 40.97,24 L38.21,24 C37.82,24 37.61,23.79 37.61,23.4 L37.61,0.6 C37.61,0.21 37.82,0 38.21,0 L42.17,0 C42.53,0 42.74,0.18 42.83,0.54 L46.16,15.48 L49.49,0.54 C49.58,0.18 49.79,0 50.15,0 Z" id="Path" fill="#444444"></path>
                        <path d="M69.68,0.48 L69.68,3.48 C69.68,3.78 69.56,3.99 69.2,3.99 L61.7,3.99 L61.7,9.99 L67.43,9.99 C67.73,9.99 67.91,10.17 67.91,10.5 L67.91,13.47 C67.91,13.8 67.73,13.98 67.43,13.98 L61.7,13.98 L61.7,20.04 L69.2,20.04 C69.56,20.04 69.68,20.19 69.68,20.52 L69.68,23.52 C69.68,23.82 69.56,24 69.2,24 L58.16,24 C57.89,24 57.71,23.82 57.71,23.52 L57.71,0.48 C57.71,0.18 57.89,0 58.16,0 L69.2,0 C69.56,0 69.68,0.18 69.68,0.48 Z" id="Path" fill="#444444"></path>
                        <path d="M19.28,12 L19.28,3.96 L22.25,3.96 C23.03,3.96 23.45,4.38 23.45,5.16 L23.45,10.8 C23.45,11.58 23.03,12 22.25,12 L19.28,12 Z M4.58,12 L4.58,3.96 L7.22,3.96 C8.03,3.96 8.42,4.38 8.42,5.16 L8.42,10.8 C8.42,11.55 8.03,12 7.22,12 L4.58,12 Z" id="Path" fill="#FFFFFF"></path>
                    </g>
                </g>
            </g>
        </g>
    </g>
</svg>